<svg width="1672" height="948" viewBox="0 0 1672 948" fill="none" xmlns="http://www.w3.org/2000/svg">
<g opacity="0.2">
<path opacity="0.1" fill-rule="evenodd" clip-rule="evenodd" d="M-916 -420C-916 -1142.06 -330.714 -1728 392 -1728C1114.71 -1728 1700 -1142.06 1700 -420C1700 302.065 1114.71 888 392 888C-330.714 888 -916 302.065 -916 -420ZM392 -1662.11C-293.301 -1662.11 -849.435 -1106.32 -849.435 -420C-849.435 266.32 -293.301 822.106 392 822.106C1077.3 822.106 1633.44 266.32 1633.44 -420C1633.44 -1106.32 1077.3 -1662.11 392 -1662.11Z" fill="#FF4F0F" stroke="#FF4F0F" stroke-width="120"/>
<path opacity="0.2" fill-rule="evenodd" clip-rule="evenodd" d="M-782.87 -418.353C-782.87 -1059.77 -257.608 -1579.74 390.336 -1579.74C1038.28 -1579.74 1563.54 -1059.77 1563.54 -418.353C1563.54 223.063 1038.28 743.032 390.336 743.032C-257.608 743.032 -782.87 223.063 -782.87 -418.353ZM390.336 -1513.84C-220.845 -1513.84 -716.305 -1023.38 -716.305 -418.353C-716.305 186.67 -220.845 677.138 390.336 677.138C1001.52 677.138 1496.98 186.67 1496.98 -418.353C1496.98 -1023.38 1001.52 -1513.84 390.336 -1513.84Z" fill="#FF4F0F" stroke="#FF4F0F" stroke-width="120"/>
<path opacity="0.4" fill-rule="evenodd" clip-rule="evenodd" d="M-643.084 -418.353C-643.084 -981.576 -181.099 -1438.07 388.672 -1438.07C958.442 -1438.07 1420.43 -981.576 1420.43 -418.353C1420.43 144.871 958.442 601.36 388.672 601.36C-181.099 601.36 -643.084 144.871 -643.084 -418.353ZM388.672 -1372.17C-144.441 -1372.17 -576.519 -945.08 -576.519 -418.353C-576.519 108.375 -144.441 535.466 388.672 535.466C921.784 535.466 1353.86 108.375 1353.86 -418.353C1353.86 -945.08 921.784 -1372.17 388.672 -1372.17Z" fill="#FF4F0F" stroke="#FF4F0F" stroke-width="120"/>
<path opacity="0.6" fill-rule="evenodd" clip-rule="evenodd" d="M-498.006 -416.565C-498.006 -901.519 -101.099 -1294.68 388.553 -1294.68C878.204 -1294.68 1275.11 -901.519 1275.11 -416.565C1275.11 68.3885 878.204 461.554 388.553 461.554C-101.099 461.554 -498.006 68.3885 -498.006 -416.565ZM388.553 -1228.79C-64.2993 -1228.79 -431.441 -865.163 -431.441 -416.565C-431.441 32.0323 -64.2993 395.66 388.553 395.66C841.405 395.66 1208.55 32.0323 1208.55 -416.565C1208.55 -865.163 841.405 -1228.79 388.553 -1228.79Z" fill="#FF4F0F" stroke="#FF4F0F" stroke-width="120"/>
<path opacity="0.7" fill-rule="evenodd" clip-rule="evenodd" d="M-363.55 -418.283C-363.55 -830.22 -26.0329 -1164.13 390.278 -1164.13C806.588 -1164.13 1144.1 -830.22 1144.1 -418.283C1144.1 -6.34644 806.588 327.564 390.278 327.564C-26.0329 327.564 -363.55 -6.34644 -363.55 -418.283ZM390.278 -1098.24C10.696 -1098.24 -296.985 -793.794 -296.985 -418.283C-296.985 -42.7725 10.696 261.67 390.278 261.67C769.859 261.67 1077.54 -42.7725 1077.54 -418.283C1077.54 -793.794 769.859 -1098.24 390.278 -1098.24Z" fill="#FF4F0F" stroke="#FF4F0F" stroke-width="120"/>
<path opacity="0.8" fill-rule="evenodd" clip-rule="evenodd" d="M-232.546 -416.566C-232.546 -757.306 46.275 -1033.58 390.274 -1033.58C734.272 -1033.58 1013.09 -757.306 1013.09 -416.566C1013.09 -75.8258 734.272 200.444 390.274 200.444C46.275 200.444 -232.546 -75.8258 -232.546 -416.566ZM390.274 -967.681C83.0878 -967.681 -165.981 -720.963 -165.981 -416.566C-165.981 -112.169 83.0878 134.549 390.274 134.549C697.459 134.549 946.528 -112.169 946.528 -416.566C946.528 -720.963 697.459 -967.681 390.274 -967.681Z" fill="#FF4F0F" stroke="#FF4F0F" stroke-width="120"/>
<path opacity="0.8" fill-rule="evenodd" clip-rule="evenodd" d="M-94.6383 -414.848C-94.6383 -680.693 123.268 -896.148 392.001 -896.148C660.734 -896.148 878.641 -680.693 878.641 -414.848C878.641 -149.002 660.734 66.4532 392.001 66.4532C123.268 66.4532 -94.6383 -149.002 -94.6383 -414.848ZM392.001 -830.254C159.97 -830.254 -28.0734 -644.24 -28.0734 -414.848C-28.0734 -185.455 159.97 0.55896 392.001 0.55896C624.032 0.55896 812.076 -185.455 812.076 -414.848C812.076 -644.24 624.032 -830.254 392.001 -830.254Z" fill="#FF4F0F" stroke="#FF4F0F" stroke-width="120"/>
</g>
</svg>
